SolidWorks IGES file using analytic representation for surfaces         S      1
1H,,1H;,14HWTE4-P-DOME-R4,107HC:\Users\Achilles\Dropbox\BR-Engineering\PG      1
ROJECTS\WTE4\MODELS\DEVELOPMENT\WTE4-P-DOME-R4\WTE4-P-DOME-R4.IGS,15HSolG      2
idWorks 2016,15HSolidWorks 2016,32,308,15,308,15,14HWTE4-P-DOME-R4,1.,  G      3
2,2HMM,50,0.125,13H181016.154607,1E-008,499990.,8HAchilles,,11,0,13H1810G      4
16.154607;                                                              G      5
     314       1       0       0       0                        00000200D      1
     314       0       8       1       0                               0D      2
     128       2       0       0       0                        01010000D      3
     128       0       0      16       0                               0D      4
     126      18       0       0       0                        01010500D      5
     126       0       0       2       0                               0D      6
     124      20       0       0       0                        00000000D      7
     124       0       0       3       0                               0D      8
     100      23       0       0       0               7        01010000D      9
     100       0       0       1       0                               0D     10
     126      24       0       0       0                        01010500D     11
     126       0       0       2       0                               0D     12
     124      26       0       0       0                        00000000D     13
     124       0       0       3       0                               0D     14
     100      29       0       0       0              13        01010000D     15
     100       0       0       1       0                               0D     16
     126      30       0       0       0                        01010500D     17
     126       0       0       2       0                               0D     18
     124      32       0       0       0                        00000000D     19
     124       0       0       3       0                               0D     20
     100      35       0       0       0              19        01010000D     21
     100       0       0       1       0                               0D     22
     126      36       0       0       0                        01010500D     23
     126       0       0       2       0                               0D     24
     124      38       0       0       0                        00000000D     25
     124       0       0       3       0                               0D     26
     100      41       0       0       0              25        01010000D     27
     100       0       0       1       0                               0D     28
     102      42       0       0       0                        01010500D     29
     102       0       0       1       0                               0D     30
     102      43       0       0       0                        01010000D     31
     102       0       0       1       0                               0D     32
     142      44       0       0       0                        00010500D     33
     142       0       0       1       0                               0D     34
     144      45       0       0       0                        00000000D     35
     144       0      -1       1       0                               0D     36
     110      46       0       0       0                        01010000D     37
     110       0       0       1       0                               0D     38
     124      47       0       0       0                        00000000D     39
     124       0       0       4       0                               0D     40
     100      51       0       0       0              39        01010000D     41
     100       0       0       1       0                               0D     42
     120      52       0       0       0                        01010000D     43
     120       0       0       1       0                               0D     44
     126      53       0       0       0                        01010500D     45
     126       0       0       2       0                               0D     46
     124      55       0       0       0                        00000000D     47
     124       0       0       2       0                               0D     48
     100      57       0       0       0              47        01010000D     49
     100       0       0       1       0                               0D     50
     126      58       0       0       0                        01010500D     51
     126       0       0       2       0                               0D     52
     124      60       0       0       0                        00000000D     53
     124       0       0       4       0                               0D     54
     100      64       0       0       0              53        01010000D     55
     100       0       0       1       0                               0D     56
     126      65       0       0       0                        01010500D     57
     126       0       0       2       0                               0D     58
     124      67       0       0       0                        00000000D     59
     124       0       0       3       0                               0D     60
     100      70       0       0       0              59        01010000D     61
     100       0       0       1       0                               0D     62
     102      71       0       0       0                        01010500D     63
     102       0       0       1       0                               0D     64
     102      72       0       0       0                        01010000D     65
     102       0       0       1       0                               0D     66
     142      73       0       0       0                        00010500D     67
     142       0       0       1       0                               0D     68
     144      74       0       0       0                        00000000D     69
     144       0      -1       1       0                               0D     70
     110      75       0       0       0                        01010000D     71
     110       0       0       1       0                               0D     72
     124      76       0       0       0                        00000000D     73
     124       0       0       4       0                               0D     74
     100      80       0       0       0              73        01010000D     75
     100       0       0       1       0                               0D     76
     120      81       0       0       0                        01010000D     77
     120       0       0       1       0                               0D     78
     126      82       0       0       0                        01010500D     79
     126       0       0       2       0                               0D     80
     124      84       0       0       0                        00000000D     81
     124       0       0       4       0                               0D     82
     100      88       0       0       0              81        01010000D     83
     100       0       0       2       0                               0D     84
     126      90       0       0       0                        01010500D     85
     126       0       0       2       0                               0D     86
     124      92       0       0       0                        00000000D     87
     124       0       0       4       0                               0D     88
     100      96       0       0       0              87        01010000D     89
     100       0       0       1       0                               0D     90
     126      97       0       0       0                        01010500D     91
     126       0       0       2       0                               0D     92
     126      99       0       0       0                        01010500D     93
     126       0       0       2       0                               0D     94
     124     101       0       0       0                        00000000D     95
     124       0       0       3       0                               0D     96
     100     104       0       0       0              95        01010000D     97
     100       0       0       1       0                               0D     98
     102     105       0       0       0                        01010500D     99
     102       0       0       1       0                               0D    100
     102     106       0       0       0                        01010000D    101
     102       0       0       1       0                               0D    102
     142     107       0       0       0                        00010500D    103
     142       0       0       1       0                               0D    104
     144     108       0       0       0                        00000000D    105
     144       0      -1       1       0                               0D    106
     128     109       0       0       0                        01010000D    107
     128       0       0      16       0                               0D    108
     126     125       0       0       0                        01010500D    109
     126       0       0       2       0                               0D    110
     124     127       0       0       0                        00000000D    111
     124       0       0       4       0                               0D    112
     100     131       0       0       0             111        01010000D    113
     100       0       0       1       0                               0D    114
     126     132       0       0       0                        01010500D    115
     126       0       0       2       0                               0D    116
     124     134       0       0       0                        00000000D    117
     124       0       0       3       0                               0D    118
     100     137       0       0       0             117        01010000D    119
     100       0       0       1       0                               0D    120
     126     138       0       0       0                        01010500D    121
     126       0       0       2       0                               0D    122
     124     140       0       0       0                        00000000D    123
     124       0       0       4       0                               0D    124
     100     144       0       0       0             123        01010000D    125
     100       0       0       1       0                               0D    126
     126     145       0       0       0                        01010500D    127
     126       0       0       2       0                               0D    128
     124     147       0       0       0                        00000000D    129
     124       0       0       4       0                               0D    130
     100     151       0       0       0             129        01010000D    131
     100       0       0       2       0                               0D    132
     102     153       0       0       0                        01010500D    133
     102       0       0       1       0                               0D    134
     102     154       0       0       0                        01010000D    135
     102       0       0       1       0                               0D    136
     142     155       0       0       0                        00010500D    137
     142       0       0       1       0                               0D    138
     144     156       0       0       0                        00000000D    139
     144       0      -1       1       0                               0D    140
     110     157       0       0       0                        01010000D    141
     110       0       0       1       0                               0D    142
     110     158       0       0       0                        01010000D    143
     110       0       0       1       0                               0D    144
     120     159       0       0       0                        01010000D    145
     120       0       0       1       0                               0D    146
     126     160       0       0       0                        01010500D    147
     126       0       0       2       0                               0D    148
     124     162       0       0       0                        00000000D    149
     124       0       0       3       0                               0D    150
     100     165       0       0       0             149        01010000D    151
     100       0       0       1       0                               0D    152
     126     166       0       0       0                        01010500D    153
     126       0       0       2       0                               0D    154
     110     168       0       0       0                        01010000D    155
     110       0       0       1       0                               0D    156
     126     169       0       0       0                        01010500D    157
     126       0       0       2       0                               0D    158
     124     171       0       0       0                        00000000D    159
     124       0       0       3       0                               0D    160
     100     174       0       0       0             159        01010000D    161
     100       0       0       1       0                               0D    162
     126     175       0       0       0                        01010500D    163
     126       0       0       2       0                               0D    164
     110     177       0       0       0                        01010000D    165
     110       0       0       1       0                               0D    166
     102     178       0       0       0                        01010500D    167
     102       0       0       1       0                               0D    168
     102     179       0       0       0                        01010000D    169
     102       0       0       1       0                               0D    170
     142     180       0       0       0                        00010500D    171
     142       0       0       1       0                               0D    172
     144     181       0       0       0                        00000000D    173
     144       0      -1       1       0                               0D    174
     110     182       0       0       0                        01010000D    175
     110       0       0       1       0                               0D    176
     110     183       0       0       0                        01010000D    177
     110       0       0       1       0                               0D    178
     120     184       0       0       0                        01010000D    179
     120       0       0       1       0                               0D    180
     126     185       0       0       0                        01010500D    181
     126       0       0       2       0                               0D    182
     110     187       0       0       0                        01010000D    183
     110       0       0       1       0                               0D    184
     126     188       0       0       0                        01010500D    185
     126       0       0       2       0                               0D    186
     124     190       0       0       0                        00000000D    187
     124       0       0       3       0                               0D    188
     100     193       0       0       0             187        01010000D    189
     100       0       0       1       0                               0D    190
     126     194       0       0       0                        01010500D    191
     126       0       0       2       0                               0D    192
     110     196       0       0       0                        01010000D    193
     110       0       0       1       0                               0D    194
     126     197       0       0       0                        01010500D    195
     126       0       0       2       0                               0D    196
     124     199       0       0       0                        00000000D    197
     124       0       0       3       0                               0D    198
     100     202       0       0       0             197        01010000D    199
     100       0       0       1       0                               0D    200
     102     203       0       0       0                        01010500D    201
     102       0       0       1       0                               0D    202
     102     204       0       0       0                        01010000D    203
     102       0       0       1       0                               0D    204
     142     205       0       0       0                        00010500D    205
     142       0       0       1       0                               0D    206
     144     206       0       0       0                        00000000D    207
     144       0      -1       1       0                               0D    208
     128     207       0       0       0                        01010000D    209
     128       0       0       3       0                               0D    210
     126     210       0       0       0                        01010500D    211
     126       0       0      44       0                               0D    212
     124     254       0       0       0                        00000000D    213
     124       0       0       3       0                               0D    214
     100     257       0       0       0             213        01010000D    215
     100       0       0       1       0                               0D    216
     126     258       0       0       0                        01010500D    217
     126       0       0      44       0                               0D    218
     124     302       0       0       0                        00000000D    219
     124       0       0       3       0                               0D    220
     100     305       0       0       0             219        01010000D    221
     100       0       0       1       0                               0D    222
     102     306       0       0       0                        01010500D    223
     102       0       0       1       0                               0D    224
     102     307       0       0       0                        01010000D    225
     102       0       0       1       0                               0D    226
     142     308       0       0       0                        00010500D    227
     142       0       0       1       0                               0D    228
     126     309       0       0       0                        01010500D    229
     126       0       0      43       0                               0D    230
     124     352       0       0       0                        00000000D    231
     124       0       0       3       0                               0D    232
     100     355       0       0       0             231        01010000D    233
     100       0       0       1       0                               0D    234
     126     356       0       0       0                        01010500D    235
     126       0       0      43       0                               0D    236
     124     399       0       0       0                        00000000D    237
     124       0       0       3       0                               0D    238
     100     402       0       0       0             237        01010000D    239
     100       0       0       1       0                               0D    240
     102     403       0       0       0                        01010500D    241
     102       0       0       1       0                               0D    242
     102     404       0       0       0                        01010000D    243
     102       0       0       1       0                               0D    244
     142     405       0       0       0                        00010500D    245
     142       0       0       1       0                               0D    246
     144     406       0       0       0                        00000000D    247
     144       0      -1       1       0                               0D    248
     128     407       0       0       0                        01010000D    249
     128       0       0      16       0                               0D    250
     126     423       0       0       0                        01010500D    251
     126       0       0       2       0                               0D    252
     124     425       0       0       0                        00000000D    253
     124       0       0       3       0                               0D    254
     100     428       0       0       0             253        01010000D    255
     100       0       0       1       0                               0D    256
     126     429       0       0       0                        01010500D    257
     126       0       0       2       0                               0D    258
     124     431       0       0       0                        00000000D    259
     124       0       0       4       0                               0D    260
     100     435       0       0       0             259        01010000D    261
     100       0       0       1       0                               0D    262
     126     436       0       0       0                        01010500D    263
     126       0       0       2       0                               0D    264
     124     438       0       0       0                        00000000D    265
     124       0       0       4       0                               0D    266
     100     442       0       0       0             265        01010000D    267
     100       0       0       2       0                               0D    268
     126     444       0       0       0                        01010500D    269
     126       0       0       2       0                               0D    270
     124     446       0       0       0                        00000000D    271
     124       0       0       4       0                               0D    272
     100     450       0       0       0             271        01010000D    273
     100       0       0       1       0                               0D    274
     102     451       0       0       0                        01010500D    275
     102       0       0       1       0                               0D    276
     102     452       0       0       0                        01010000D    277
     102       0       0       1       0                               0D    278
     142     453       0       0       0                        00010500D    279
     142       0       0       1       0                               0D    280
     144     454       0       0       0                        00000000D    281
     144       0      -1       1       0                               0D    282
     110     455       0       0       0                        01010000D    283
     110       0       0       1       0                               0D    284
     124     456       0       0       0                        00000000D    285
     124       0       0       4       0                               0D    286
     100     460       0       0       0             285        01010000D    287
     100       0       0       1       0                               0D    288
     120     461       0       0       0                        01010000D    289
     120       0       0       1       0                               0D    290
     126     462       0       0       0                        01010500D    291
     126       0       0       2       0                               0D    292
     124     464       0       0       0                        00000000D    293
     124       0       0       4       0                               0D    294
     100     468       0       0       0             293        01010000D    295
     100       0       0       1       0                               0D    296
     126     469       0       0       0                        01010500D    297
     126       0       0       2       0                               0D    298
     124     471       0       0       0                        00000000D    299
     124       0       0       4       0                               0D    300
     100     475       0       0       0             299        01010000D    301
     100       0       0       2       0                               0D    302
     126     477       0       0       0                        01010500D    303
     126       0       0       2       0                               0D    304
     124     479       0       0       0                        00000000D    305
     124       0       0       4       0                               0D    306
     100     483       0       0       0             305        01010000D    307
     100       0       0       1       0                               0D    308
     102     484       0       0       0                        01010500D    309
     102       0       0       1       0                               0D    310
     102     485       0       0       0                        01010000D    311
     102       0       0       1       0                               0D    312
     142     486       0       0       0                        00010500D    313
     142       0       0       1       0                               0D    314
     144     487       0       0       0                        00000000D    315
     144       0      -1       1       0                               0D    316
     110     488       0       0       0                        01010000D    317
     110       0       0       1       0                               0D    318
     124     489       0       0       0                        00000000D    319
     124       0       0       4       0                               0D    320
     100     493       0       0       0             319        01010000D    321
     100       0       0       1       0                               0D    322
     120     494       0       0       0                        01010000D    323
     120       0       0       1       0                               0D    324
     126     495       0       0       0                        01010500D    325
     126       0       0       2       0                               0D    326
     124     497       0       0       0                        00000000D    327
     124       0       0       3       0                               0D    328
     100     500       0       0       0             327        01010000D    329
     100       0       0       1       0                               0D    330
     126     501       0       0       0                        01010500D    331
     126       0       0       2       0                               0D    332
     124     503       0       0       0                        00000000D    333
     124       0       0       3       0                               0D    334
     100     506       0       0       0             333        01010000D    335
     100       0       0       1       0                               0D    336
     126     507       0       0       0                        01010500D    337
     126       0       0       2       0                               0D    338
     124     509       0       0       0                        00000000D    339
     124       0       0       3       0                               0D    340
     100     512       0       0       0             339        01010000D    341
     100       0       0       1       0                               0D    342
     126     513       0       0       0                        01010500D    343
     126       0       0       2       0                               0D    344
     102     515       0       0       0                        01010500D    345
     102       0       0       1       0                               0D    346
     102     516       0       0       0                        01010000D    347
     102       0       0       1       0                               0D    348
     142     517       0       0       0                        00010500D    349
     142       0       0       1       0                               0D    350
     144     518       0       0       0                        00000000D    351
     144       0      -1       1       0                               0D    352
     128     519       0       0       0                        01010000D    353
     128       0       0      16       0                               0D    354
     126     535       0       0       0                        01010500D    355
     126       0       0       2       0                               0D    356
     124     537       0       0       0                        00000000D    357
     124       0       0       4       0                               0D    358
     100     541       0       0       0             357        01010000D    359
     100       0       0       1       0                               0D    360
     126     542       0       0       0                        01010500D    361
     126       0       0       2       0                               0D    362
     124     544       0       0       0                        00000000D    363
     124       0       0       3       0                               0D    364
     100     547       0       0       0             363        01010000D    365
     100       0       0       1       0                               0D    366
     126     548       0       0       0                        01010500D    367
     126       0       0       2       0                               0D    368
     124     550       0       0       0                        00000000D    369
     124       0       0       3       0                               0D    370
     100     553       0       0       0             369        01010000D    371
     100       0       0       1       0                               0D    372
     126     554       0       0       0                        01010500D    373
     126       0       0       2       0                               0D    374
     124     556       0       0       0                        00000000D    375
     124       0       0       3       0                               0D    376
     100     559       0       0       0             375        01010000D    377
     100       0       0       1       0                               0D    378
     102     560       0       0       0                        01010500D    379
     102       0       0       1       0                               0D    380
     102     561       0       0       0                        01010000D    381
     102       0       0       1       0                               0D    382
     142     562       0       0       0                        00010500D    383
     142       0       0       1       0                               0D    384
     144     563       0       0       0                        00000000D    385
     144       0      -1       1       0                               0D    386
     128     564       0       0       0                        01010000D    387
     128       0       0       4       0                               0D    388
     126     568       0       0       0                        01010500D    389
     126       0       0      44       0                               0D    390
     124     612       0       0       0                        00000000D    391
     124       0       0       3       0                               0D    392
     100     615       0       0       0             391        01010000D    393
     100       0       0       1       0                               0D    394
     126     616       0       0       0                        01010500D    395
     126       0       0      44       0                               0D    396
     124     660       0       0       0                        00000000D    397
     124       0       0       3       0                               0D    398
     100     663       0       0       0             397        01010000D    399
     100       0       0       1       0                               0D    400
     102     664       0       0       0                        01010500D    401
     102       0       0       1       0                               0D    402
     102     665       0       0       0                        01010000D    403
     102       0       0       1       0                               0D    404
     142     666       0       0       0                        00010500D    405
     142       0       0       1       0                               0D    406
     126     667       0       0       0                        01010500D    407
     126       0       0      44       0                               0D    408
     124     711       0       0       0                        00000000D    409
     124       0       0       3       0                               0D    410
     100     714       0       0       0             409        01010000D    411
     100       0       0       1       0                               0D    412
     126     715       0       0       0                        01010500D    413
     126       0       0      44       0                               0D    414
     124     759       0       0       0                        00000000D    415
     124       0       0       3       0                               0D    416
     100     762       0       0       0             415        01010000D    417
     100       0       0       1       0                               0D    418
     102     763       0       0       0                        01010500D    419
     102       0       0       1       0                               0D    420
     102     764       0       0       0                        01010000D    421
     102       0       0       1       0                               0D    422
     142     765       0       0       0                        00010500D    423
     142       0       0       1       0                               0D    424
     144     766       0       0       0                        00000000D    425
     144       0      -1       1       0                               0D    426
314,85.8823529411765,85.8823529411765,85.8823529411765,;               1P      1
128,3,3,3,3,0,0,0,0,0,0.,0.,0.,0.,1.,1.,1.,1.,0.,0.,0.,0.,1.,          3P      2
1.,1.,1.,1.,0.75532087111797,0.75532087111797,1.,                      3P      3
0.333333333333333,0.25177362370599,0.25177362370599,                   3P      4
0.333333333333333,0.333333333333333,0.25177362370599,                  3P      5
0.25177362370599,0.333333333333333,1.,0.75532087111797,                3P      6
0.75532087111797,1.,0.,0.009991669,45.751666833,0.,                    3P      7
-0.126440845,44.39189247,0.,0.83989247,43.425559155,0.,                3P      8
2.199666833,43.561991669,91.503333667,0.009991669,45.751666833,        3P      9
88.783784939,-0.126440845,44.39189247,86.851118309,0.83989247,         3P     10
43.425559155,87.123983339,2.199666833,43.561991669,                    3P     11
91.503333667,0.009991669,-45.751666833,88.783784939,                   3P     12
-0.126440845,-44.39189247,86.851118309,0.83989247,                     3P     13
-43.425559155,87.123983339,2.199666833,-43.561991669,0.,               3P     14
0.009991669,-45.751666833,0.,-0.126440845,-44.39189247,0.,             3P     15
0.83989247,-43.425559155,0.,2.199666833,-43.561991669,0.,1.,0.,        3P     16
1.;                                                                    3P     17
126,1,1,1,0,1,0,0.,0.,1.,1.,1.,1.,0.936858543,0.,0.,                   5P     18
0.936858543,1.,0.,0.,1.,0.,0.,1.;                                      5P     19
124,1.40271576953299E-014,1.,0.,-2.,-6.12323399573677E-017,            7P     20
8.58915688636046E-031,1.,2.,1.,-1.40271576953299E-014,                 7P     21
6.12323399573677E-017,2.80590477269097E-014;                           7P     22
100,0.,0.,2.,43.552,2.,-43.552,2.;                                     9P     23
126,1,1,1,0,1,0,0.,0.,1.,1.,1.,1.,0.936858543,1.,0.,                  11P     24
0.063141457,1.,0.,0.,1.,0.,0.,1.;                                     11P     25
124,-6.12323399573677E-017,-7.78857093535397E-033,1.,45.552,          13P     26
1.22464679914735E-016,-1.,-2.89772022044683E-034,4.,1.,               13P     27
1.22464679914735E-016,6.12323399573677E-017,-45.552;                  13P     28
100,-45.552,0.,2.,2.,2.,0.,4.;                                        15P     29
126,1,1,1,0,1,0,0.,0.,1.,1.,1.,1.,0.063141457,1.,0.,                  17P     30
0.063141457,0.,0.,0.,1.,0.,0.,1.;                                     17P     31
124,1.40271576953299E-014,1.,0.,0.,7.04419501764363E-015,             19P     32
-9.88100343491444E-029,-1.,0.,-1.,1.40271576953299E-014,              19P     33
-7.04419501764363E-015,0.;                                            19P     34
100,0.,0.,0.,45.552,0.,-45.552,0.;                                    21P     35
126,1,1,1,0,1,0,0.,0.,1.,1.,1.,1.,0.063141457,0.,0.,                  23P     36
0.936858543,0.,0.,0.,1.,0.,0.,1.;                                     23P     37
124,6.41374716884544E-031,6.12323399573677E-017,1.,-45.552,-1.,       25P     38
1.04744440165294E-014,0.,1.99999999999998,                            25P     39
-1.04744440165294E-014,-1.,6.12323399573677E-017,47.552;              25P     40
100,45.552,0.,2.,2.,2.,0.,4.;                                         27P     41
102,4,5,11,17,23;                                                     29P     42
102,4,9,15,21,27;                                                     31P     43
142,1,3,29,31,1;                                                      33P     44
144,3,1,0,33;                                                         35P     45
110,0.,2.,0.,0.,45.552,0.;                                            37P     46
124,8.58915688636046E-031,6.12323399573677E-017,-1.,                  39P     47
-1.76674788539011E-016,-1.,1.40271576953299E-014,0.,                  39P     48
1.99999999999997,1.40271576953299E-014,1.,                            39P     49
6.12323399573677E-017,-2.;                                            39P     50
100,0.,0.,2.,43.552,2.,-43.552,2.;                                    41P     51
120,37,41,0.,6.28318530717959;                                        43P     52
126,1,1,1,0,1,0,0.,0.,1.,1.,1.,1.,1.570796317,6.283185307,0.,         45P     53
3.141592644,6.283185307,0.,0.,1.,0.,0.,1.;                            45P     54
124,6.12323399573677E-017,0.,-1.,0.,0.,1.,0.,0.,1.,0.,                47P     55
6.12323399573677E-017,0.;                                             47P     56
100,0.,0.,2.,43.552,2.,0.,45.552;                                     49P     57
126,1,1,1,0,1,0,0.,0.,1.,1.,1.,1.,3.141592644,3.141592654,0.,         51P     58
1.570796317,3.141592654,0.,0.,1.,0.,0.,1.;                            51P     59
124,-4.31042772024306E-031,7.04419501764363E-015,-1.,                 53P     60
-1.41426001439115E-014,1.,6.12323399573677E-017,                      53P     61
2.89772022044683E-034,2.,6.12323399573677E-017,-1.,                   53P     62
-7.04419501764363E-015,2.;                                            53P     63
100,0.,0.,2.,43.552,2.,0.,45.552;                                     55P     64
126,1,1,1,0,1,0,0.,0.,1.,1.,1.,1.,1.570796317,3.141592654,0.,         57P     65
1.570796317,6.283185307,0.,0.,1.,0.,0.,1.;                            57P     66
124,6.12323399573677E-017,-1.,0.,2.,6.12323399573677E-017,            59P     67
3.74939945665464E-033,1.,2.,-1.,-6.12323399573677E-017,               59P     68
6.12323399573677E-017,1.27197016164607E-016;                          59P     69
100,0.,0.,2.,43.552,2.,-43.552,2.;                                    61P     70
102,3,45,51,57;                                                       63P     71
102,3,49,55,61;                                                       65P     72
142,1,43,63,65,1;                                                     67P     73
144,43,1,0,67;                                                        69P     74
110,0.,2.,0.,0.,49.302,0.;                                            71P     75
124,8.58915688636046E-031,6.12323399573677E-017,1.,                   73P     76
-6.82545712904601E-017,-1.,1.40271576953299E-014,0.,                  73P     77
1.99999999999997,-1.40271576953299E-014,-1.,                          73P     78
6.12323399573677E-017,2.;                                             73P     79
100,0.,0.,2.,47.302,2.,-47.302,2.;                                    75P     80
120,71,75,0.,6.28318530717959;                                        77P     81
126,1,1,1,0,1,0,0.,0.,1.,1.,1.,1.,1.623083787,0.,0.,                  79P     82
1.623083787,3.141592654,0.,0.,1.,0.,0.,1.;                            79P     83
124,6.12323399573677E-017,-1.,0.,4.47217509986684,                    81P     84
6.12323399573677E-017,3.74939945665464E-033,1.,                       81P     85
4.47217509986684,-1.,-6.12323399573677E-017,                          81P     86
6.12323399573677E-017,2.84423664234356E-016;                          81P     87
100,0.,0.,4.4721751,47.237353379,4.4721751,-47.237353379,             83P     88
4.4721751;                                                            83P     89
126,1,1,1,0,1,0,0.,0.,1.,1.,1.,1.,1.623083787,3.141592654,0.,         85P     90
3.141592644,3.141592654,0.,0.,1.,0.,0.,1.;                            85P     91
124,-7.0345678686048E-015,3.68155332147142E-016,-1.,                  87P     92
-7.90520772918559E-016,0.0522636484687067,0.998633321619472,          87P     93
2.89772022044683E-034,0.00273335676105625,0.998633321619472,          87P     94
-0.0522636484687067,-7.04419501764363E-015,0.104527296937413;         87P     95
100,0.,0.,2.,47.302,2.,2.4721751,49.237353379;                        89P     96
126,1,1,1,0,1,0,0.,0.,1.,1.,1.,1.,3.141592644,3.141592654,0.,         91P     97
3.141592644,0.,0.,0.,1.,0.,0.,1.;                                     91P     98
126,1,1,1,0,1,0,0.,0.,1.,1.,1.,1.,3.141592644,0.,0.,                  93P     99
1.623083787,0.,0.,0.,1.,0.,0.,1.;                                     93P    100
124,-9.84691127781427E-033,-6.12323399573677E-017,-1.,                95P    101
6.82545712904601E-017,1.,-1.60812264967664E-016,0.,2.,                95P    102
-1.60812264967664E-016,-1.,6.12323399573677E-017,2.;                  95P    103
100,0.,0.,2.,47.302,2.,2.4721751,49.237353379;                        97P    104
102,4,79,85,91,93;                                                    99P    105
102,3,83,89,97;                                                      101P    106
142,1,77,99,101,1;                                                   103P    107
144,77,1,0,103;                                                      105P    108
128,3,3,3,3,0,0,0,0,0,0.,0.,0.,0.,1.,1.,1.,1.,0.,0.,0.,0.,1.,        107P    109
1.,1.,1.,1.,0.76866820862015,0.76866820862015,1.,                    107P    110
0.333333333333333,0.256222736206717,0.256222736206717,               107P    111
0.333333333333333,0.333333333333333,0.256222736206717,               107P    112
0.256222736206717,0.333333333333333,1.,0.76866820862015,             107P    113
0.76866820862015,1.,0.,3.753806826,-48.074385034,0.,                 107P    114
3.703837816,-47.576361676,0.,4.048388872,-47.213306946,0.,           107P    115
4.548343155,-47.237179147,-96.148770068,3.753806826,                 107P    116
-48.074385034,-95.152723352,3.703837816,-47.576361676,               107P    117
-94.426613891,4.048388872,-47.213306946,-94.474358293,               107P    118
4.548343155,-47.237179147,-96.148770068,3.753806826,                 107P    119
48.074385034,-95.152723352,3.703837816,47.576361676,                 107P    120
-94.426613891,4.048388872,47.213306946,-94.474358293,                107P    121
4.548343155,47.237179147,0.,3.753806826,48.074385034,0.,             107P    122
3.703837816,47.576361676,0.,4.048388872,47.213306946,0.,             107P    123
4.548343155,47.237179147,0.,1.,0.,1.;                                107P    124
126,1,1,1,0,1,0,0.,0.,1.,1.,1.,1.,0.935406739,1.,0.,                 109P    125
0.064593261,1.,0.,0.,1.,0.,0.,1.;                                    109P    126
124,-6.11486550421587E-017,3.2002254904501E-018,-1.,                 111P    127
47.9983119703183,-0.0522636484687376,-0.99863332161947,0.,           111P    128
9.01783354714706,-0.99863332161947,0.0522636484687376,               111P    129
6.12323399573677E-017,47.7624983884273;                              111P    130
100,47.99831197,0.,4.512,0.762,4.512,0.0398249,5.272958591;          113P    131
126,1,1,1,0,1,0,0.,0.,1.,1.,1.,1.,0.064593261,1.,0.,                 115P    132
0.064593261,0.,0.,0.,1.,0.,0.,1.;                                    115P    133
124,6.12323399573677E-017,-1.,0.,3.75,-7.04419501764363E-015,        117P    134
-4.3133254404635E-031,-1.,3.75,1.,6.12323399573677E-017,             117P    135
-7.04419501764363E-015,-2.20748144371621E-016;                       117P    136
100,0.,0.,3.75,47.99831197,3.75,-47.99831197,3.75;                   119P    137
126,1,1,1,0,1,0,0.,0.,1.,1.,1.,1.,0.064593261,0.,0.,                 121P    138
0.935406739,0.,0.,0.,1.,0.,0.,1.;                                    121P    139
124,-9.88103241211665E-029,-7.04419501764363E-015,-1.,               123P    140
-47.9983119703182,-1.,1.40271576953299E-014,                         123P    141
2.89772022044683E-034,4.51199999999995,1.40271576953299E-014,        123P    142
1.,-7.04419501764363E-015,-52.5103119703186;                         123P    143
100,-47.99831197,0.,4.512,0.762,4.512,0.0398249,5.272958591;         125P    144
126,1,1,1,0,1,0,0.,0.,1.,1.,1.,1.,0.935406739,0.,0.,                 127P    145
0.935406739,1.,0.,0.,1.,0.,0.,1.;                                    127P    146
124,6.12323399573677E-017,-1.,0.,4.47217509986684,                   129P    147
6.12323399573677E-017,3.74939945665464E-033,1.,                      129P    148
4.47217509986684,-1.,-6.12323399573677E-017,                         129P    149
6.12323399573677E-017,2.84423664234356E-016;                         129P    150
100,0.,0.,4.4721751,47.237353379,4.4721751,-47.237353379,            131P    151
4.4721751;                                                           131P    152
102,4,109,115,121,127;                                               133P    153
102,4,113,119,125,131;                                               135P    154
142,1,107,133,135,1;                                                 137P    155
144,107,1,0,137;                                                     139P    156
110,0.,1000.,0.,0.,0.,0.;                                            141P    157
110,0.,3.75,-52.,0.,0.,-52.328082488;                                143P    158
120,141,143,0.,6.28318530717959;                                     145P    159
126,1,1,1,0,1,0,0.,0.,1.,1.,1.,1.,0.,0.,0.,0.,3.141592654,0.,        147P    160
0.,1.,0.,0.,1.;                                                      147P    161
124,1.40271576953299E-014,1.,0.,-3.75,7.04419501764363E-015,         149P    162
-9.88100343491444E-029,-1.,3.75,-1.,1.40271576953299E-014,           149P    163
-7.04419501764363E-015,-5.25929682270186E-014;                       149P    164
100,0.,0.,3.75,52.,3.75,-52.,3.75;                                   151P    165
126,1,1,1,0,1,0,0.,0.,1.,1.,1.,1.,0.,3.141592654,0.,1.,              153P    166
3.141592654,0.,0.,1.,0.,0.,1.;                                       153P    167
110,0.,3.75,52.,0.,0.,52.328082488;                                  155P    168
126,1,1,1,0,1,0,0.,0.,1.,1.,1.,1.,1.,3.141592654,0.,1.,0.,0.,        157P    169
0.,1.,0.,0.,1.;                                                      157P    170
124,1.40271576953299E-014,1.,0.,0.,-6.12323399573677E-017,           159P    171
8.58915688636046E-031,1.,0.,1.,-1.40271576953299E-014,               159P    172
6.12323399573677E-017,0.;                                            159P    173
100,0.,0.,0.,52.328082488,0.,-52.328082488,0.;                       161P    174
126,1,1,1,0,1,0,0.,0.,1.,1.,1.,1.,1.,0.,0.,0.,0.,0.,0.,1.,0.,        163P    175
0.,1.;                                                               163P    176
110,0.,0.,-52.328082488,0.,3.75,-52.;                                165P    177
102,4,147,153,157,163;                                               167P    178
102,4,151,155,161,165;                                               169P    179
142,1,145,167,169,1;                                                 171P    180
144,145,1,0,171;                                                     173P    181
110,0.,1000.,0.,0.,0.,0.;                                            175P    182
110,0.,3.75,-52.,0.,0.,-52.328082488;                                177P    183
120,175,177,0.,6.28318530717959;                                     179P    184
126,1,1,1,0,1,0,0.,0.,1.,1.,1.,1.,1.,3.141592654,0.,0.,              181P    185
3.141592654,0.,0.,1.,0.,0.,1.;                                       181P    186
110,0.,0.,52.328082488,0.,3.75,52.;                                  183P    187
126,1,1,1,0,1,0,0.,0.,1.,1.,1.,1.,0.,3.141592654,0.,0.,              185P    188
6.283185307,0.,0.,1.,0.,0.,1.;                                       185P    189
124,6.12323399573677E-017,-1.,0.,3.75,-7.04419501764363E-015,        187P    190
-4.3133254404635E-031,-1.,3.75,1.,6.12323399573677E-017,             187P    191
-7.04419501764363E-015,-2.20748144371621E-016;                       187P    192
100,0.,0.,3.75,52.,3.75,-52.,3.75;                                   189P    193
126,1,1,1,0,1,0,0.,0.,1.,1.,1.,1.,0.,6.283185307,0.,1.,              191P    194
6.283185307,0.,0.,1.,0.,0.,1.;                                       191P    195
110,0.,3.75,-52.,0.,0.,-52.328082488;                                193P    196
126,1,1,1,0,1,0,0.,0.,1.,1.,1.,1.,1.,6.283185307,0.,1.,              195P    197
3.141592654,0.,0.,1.,0.,0.,1.;                                       195P    198
124,6.12323399573677E-017,-1.,0.,0.,6.12323399573677E-017,           197P    199
3.74939945665464E-033,1.,0.,-1.,-6.12323399573677E-017,              197P    200
6.12323399573677E-017,0.;                                            197P    201
100,0.,0.,0.,52.328082488,0.,-52.328082488,0.;                       199P    202
102,4,181,185,191,195;                                               201P    203
102,4,183,189,193,199;                                               203P    204
142,1,179,201,203,1;                                                 205P    205
144,179,1,0,205;                                                     207P    206
128,1,1,1,1,0,0,1,0,0,0.,0.,1.,1.,0.,0.,1.,1.,1.,1.,1.,1.,           209P    207
-52.624,3.75,52.624,-52.624,3.75,-52.624,52.624,3.75,52.624,         209P    208
52.624,3.75,-52.624,0.,1.,0.,1.;                                     209P    209
126,64,2,1,0,1,0,0.,0.,0.,0.03125,0.03125,0.0625,0.0625,             211P    210
0.09375,0.09375,0.125,0.125,0.15625,0.15625,0.1875,0.1875,           211P    211
0.21875,0.21875,0.25,0.25,0.28125,0.28125,0.3125,0.3125,             211P    212
0.34375,0.34375,0.375,0.375,0.40625,0.40625,0.4375,0.4375,           211P    213
0.46875,0.46875,0.5,0.5,0.53125,0.53125,0.5625,0.5625,0.59375,       211P    214
0.59375,0.625,0.625,0.65625,0.65625,0.6875,0.6875,0.71875,           211P    215
0.71875,0.75,0.75,0.78125,0.78125,0.8125,0.8125,0.84375,             211P    216
0.84375,0.875,0.875,0.90625,0.90625,0.9375,0.9375,0.96875,           211P    217
0.96875,1.,1.,1.,1.,1.,1.,1.,1.,1.,1.,1.,1.,1.,1.,1.,1.,1.,1.,       211P    218
1.,1.,1.,1.,1.,1.,1.,1.,1.,1.,1.,1.,1.,1.,1.,1.,1.,1.,1.,1.,1.,      211P    219
1.,1.,1.,1.,1.,1.,1.,1.,1.,1.,1.,1.,1.,1.,1.,1.,1.,1.,1.,1.,1.,      211P    220
1.,1.,1.,1.,1.,1.,1.,1.,0.994071146,0.5,0.,0.994071146,              211P    221
0.524272159,0.,0.991692059,0.548427441,0.,0.989312971,               211P    222
0.572582723,0.,0.984577708,0.596388499,0.,0.979842444,               211P    223
0.620194275,0.,0.972796609,0.643421283,0.,0.965750773,               211P    224
0.666648291,0.,0.95646222,0.689072842,0.,0.947173667,                211P    225
0.711497393,0.,0.93573185,0.732903526,0.,0.924290033,                211P    226
0.754309659,0.,0.910805144,0.774491222,0.,0.897320255,               211P    227
0.794672784,0.,0.881922161,0.813435417,0.,0.866524066,               211P    228
0.83219805,0.,0.849361058,0.849361058,0.,0.83219805,                 211P    229
0.866524066,0.,0.813435417,0.881922161,0.,0.794672784,               211P    230
0.897320255,0.,0.774491222,0.910805144,0.,0.754309659,               211P    231
0.924290033,0.,0.732903526,0.93573185,0.,0.711497393,                211P    232
0.947173667,0.,0.689072842,0.95646222,0.,0.666648291,                211P    233
0.965750773,0.,0.643421283,0.972796609,0.,0.620194275,               211P    234
0.979842444,0.,0.596388499,0.984577708,0.,0.572582723,               211P    235
0.989312971,0.,0.548427441,0.991692059,0.,0.524272159,               211P    236
0.994071146,0.,0.5,0.994071146,0.,0.475727841,0.994071146,0.,        211P    237
0.451572559,0.991692059,0.,0.427417277,0.989312971,0.,               211P    238
0.403611501,0.984577708,0.,0.379805725,0.979842444,0.,               211P    239
0.356578717,0.972796609,0.,0.333351709,0.965750773,0.,               211P    240
0.310927158,0.95646222,0.,0.288502607,0.947173667,0.,                211P    241
0.267096474,0.93573185,0.,0.245690341,0.924290033,0.,                211P    242
0.225508778,0.910805144,0.,0.205327216,0.897320255,0.,               211P    243
0.186564583,0.881922161,0.,0.16780195,0.866524066,0.,                211P    244
0.150638942,0.849361058,0.,0.133475934,0.83219805,0.,                211P    245
0.118077839,0.813435417,0.,0.102679745,0.794672784,0.,               211P    246
0.089194856,0.774491222,0.,0.075709967,0.754309659,0.,               211P    247
0.06426815,0.732903526,0.,0.052826333,0.711497393,0.,                211P    248
0.04353778,0.689072842,0.,0.034249227,0.666648291,0.,                211P    249
0.027203391,0.643421283,0.,0.020157556,0.620194275,0.,               211P    250
0.015422292,0.596388499,0.,0.010687029,0.572582723,0.,               211P    251
0.008307941,0.548427441,0.,0.005928854,0.524272159,0.,               211P    252
0.005928854,0.5,0.,0.,1.,0.,0.,-1.;                                  211P    253
124,1.40271576953299E-014,1.,0.,-3.75,7.04419501764363E-015,         213P    254
-9.88100343491444E-029,-1.,3.75,-1.,1.40271576953299E-014,           213P    255
-7.04419501764363E-015,-5.25929682270186E-014;                       213P    256
100,0.,0.,3.75,52.,3.75,-52.,3.75;                                   215P    257
126,64,2,1,0,1,0,0.,0.,0.,0.03125,0.03125,0.0625,0.0625,             217P    258
0.09375,0.09375,0.125,0.125,0.15625,0.15625,0.1875,0.1875,           217P    259
0.21875,0.21875,0.25,0.25,0.28125,0.28125,0.3125,0.3125,             217P    260
0.34375,0.34375,0.375,0.375,0.40625,0.40625,0.4375,0.4375,           217P    261
0.46875,0.46875,0.5,0.5,0.53125,0.53125,0.5625,0.5625,0.59375,       217P    262
0.59375,0.625,0.625,0.65625,0.65625,0.6875,0.6875,0.71875,           217P    263
0.71875,0.75,0.75,0.78125,0.78125,0.8125,0.8125,0.84375,             217P    264
0.84375,0.875,0.875,0.90625,0.90625,0.9375,0.9375,0.96875,           217P    265
0.96875,1.,1.,1.,1.,1.,1.,1.,1.,1.,1.,1.,1.,1.,1.,1.,1.,1.,1.,       217P    266
1.,1.,1.,1.,1.,1.,1.,1.,1.,1.,1.,1.,1.,1.,1.,1.,1.,1.,1.,1.,1.,      217P    267
1.,1.,1.,1.,1.,1.,1.,1.,1.,1.,1.,1.,1.,1.,1.,1.,1.,1.,1.,1.,1.,      217P    268
1.,1.,1.,1.,1.,1.,1.,1.,0.005928854,0.5,0.,0.005928854,              217P    269
0.475727841,0.,0.008307941,0.451572559,0.,0.010687029,               217P    270
0.427417277,0.,0.015422292,0.403611501,0.,0.020157556,               217P    271
0.379805725,0.,0.027203391,0.356578717,0.,0.034249227,               217P    272
0.333351709,0.,0.04353778,0.310927158,0.,0.052826333,                217P    273
0.288502607,0.,0.06426815,0.267096474,0.,0.075709967,                217P    274
0.245690341,0.,0.089194856,0.225508778,0.,0.102679745,               217P    275
0.205327216,0.,0.118077839,0.186564583,0.,0.133475934,               217P    276
0.16780195,0.,0.150638942,0.150638942,0.,0.16780195,                 217P    277
0.133475934,0.,0.186564583,0.118077839,0.,0.205327216,               217P    278
0.102679745,0.,0.225508778,0.089194856,0.,0.245690341,               217P    279
0.075709967,0.,0.267096474,0.06426815,0.,0.288502607,                217P    280
0.052826333,0.,0.310927158,0.04353778,0.,0.333351709,                217P    281
0.034249227,0.,0.356578717,0.027203391,0.,0.379805725,               217P    282
0.020157556,0.,0.403611501,0.015422292,0.,0.427417277,               217P    283
0.010687029,0.,0.451572559,0.008307941,0.,0.475727841,               217P    284
0.005928854,0.,0.5,0.005928854,0.,0.524272159,0.005928854,0.,        217P    285
0.548427441,0.008307941,0.,0.572582723,0.010687029,0.,               217P    286
0.596388499,0.015422292,0.,0.620194275,0.020157556,0.,               217P    287
0.643421283,0.027203391,0.,0.666648291,0.034249227,0.,               217P    288
0.689072842,0.04353778,0.,0.711497393,0.052826333,0.,                217P    289
0.732903526,0.06426815,0.,0.754309659,0.075709967,0.,                217P    290
0.774491222,0.089194856,0.,0.794672784,0.102679745,0.,               217P    291
0.813435417,0.118077839,0.,0.83219805,0.133475934,0.,                217P    292
0.849361058,0.150638942,0.,0.866524066,0.16780195,0.,                217P    293
0.881922161,0.186564583,0.,0.897320255,0.205327216,0.,               217P    294
0.910805144,0.225508778,0.,0.924290033,0.245690341,0.,               217P    295
0.93573185,0.267096474,0.,0.947173667,0.288502607,0.,                217P    296
0.95646222,0.310927158,0.,0.965750773,0.333351709,0.,                217P    297
0.972796609,0.356578717,0.,0.979842444,0.379805725,0.,               217P    298
0.984577708,0.403611501,0.,0.989312971,0.427417277,0.,               217P    299
0.991692059,0.451572559,0.,0.994071146,0.475727841,0.,               217P    300
0.994071146,0.5,0.,0.,1.,0.,0.,-1.;                                  217P    301
124,6.12323399573677E-017,-1.,0.,3.75,-7.04419501764363E-015,        219P    302
-4.3133254404635E-031,-1.,3.75,1.,6.12323399573677E-017,             219P    303
-7.04419501764363E-015,-2.20748144371621E-016;                       219P    304
100,0.,0.,3.75,52.,3.75,-52.,3.75;                                   221P    305
102,2,211,217;                                                       223P    306
102,2,215,221;                                                       225P    307
142,1,209,223,225,1;                                                 227P    308
126,64,2,1,0,1,0,0.,0.,0.,0.03125,0.03125,0.0625,0.0625,             229P    309
0.09375,0.09375,0.125,0.125,0.15625,0.15625,0.1875,0.1875,           229P    310
0.21875,0.21875,0.25,0.25,0.28125,0.28125,0.3125,0.3125,             229P    311
0.34375,0.34375,0.375,0.375,0.40625,0.40625,0.4375,0.4375,           229P    312
0.46875,0.46875,0.5,0.5,0.53125,0.53125,0.5625,0.5625,0.59375,       229P    313
0.59375,0.625,0.625,0.65625,0.65625,0.6875,0.6875,0.71875,           229P    314
0.71875,0.75,0.75,0.78125,0.78125,0.8125,0.8125,0.84375,             229P    315
0.84375,0.875,0.875,0.90625,0.90625,0.9375,0.9375,0.96875,           229P    316
0.96875,1.,1.,1.,1.,1.,1.,1.,1.,1.,1.,1.,1.,1.,1.,1.,1.,1.,1.,       229P    317
1.,1.,1.,1.,1.,1.,1.,1.,1.,1.,1.,1.,1.,1.,1.,1.,1.,1.,1.,1.,1.,      229P    318
1.,1.,1.,1.,1.,1.,1.,1.,1.,1.,1.,1.,1.,1.,1.,1.,1.,1.,1.,1.,1.,      229P    319
1.,1.,1.,1.,1.,1.,1.,1.,0.956049635,0.5,0.,0.956049635,              229P    320
0.477595718,0.,0.953853631,0.455299319,0.,0.951657628,               229P    321
0.43300292,0.,0.947286769,0.41102913,0.,0.94291591,0.38905534,       229P    322
0.,0.936412291,0.367615779,0.,0.929908671,0.346176218,0.,            229P    323
0.921334923,0.32547736,0.,0.912761176,0.304778503,0.,                229P    324
0.902199871,0.28501969,0.,0.891638565,0.265260878,0.,                229P    325
0.879191413,0.246632398,0.,0.866744261,0.228003919,0.,               229P    326
0.852531135,0.210685174,0.,0.838318009,0.19336643,0.,                229P    327
0.822475789,0.177524211,0.,0.80663357,0.161681991,0.,                229P    328
0.789314826,0.147468865,0.,0.771996081,0.133255739,0.,               229P    329
0.753367602,0.120808587,0.,0.734739122,0.108361435,0.,               229P    330
0.71498031,0.097800129,0.,0.695221497,0.087238824,0.,                229P    331
0.67452264,0.078665077,0.,0.653823782,0.070091329,0.,                229P    332
0.632384221,0.063587709,0.,0.61094466,0.05708409,0.,0.58897087,      229P    333
0.052713231,0.,0.56699708,0.048342372,0.,0.544700681,                229P    334
0.046146369,0.,0.522404282,0.043950365,0.,0.5,0.043950365,0.,        229P    335
0.477595718,0.043950365,0.,0.455299319,0.046146369,0.,               229P    336
0.43300292,0.048342372,0.,0.41102913,0.052713231,0.,0.38905534,      229P    337
0.05708409,0.,0.367615779,0.063587709,0.,0.346176218,                229P    338
0.070091329,0.,0.32547736,0.078665077,0.,0.304778503,                229P    339
0.087238824,0.,0.28501969,0.097800129,0.,0.265260878,                229P    340
0.108361435,0.,0.246632398,0.120808587,0.,0.228003919,               229P    341
0.133255739,0.,0.210685174,0.147468865,0.,0.19336643,                229P    342
0.161681991,0.,0.177524211,0.177524211,0.,0.161681991,               229P    343
0.19336643,0.,0.147468865,0.210685174,0.,0.133255739,                229P    344
0.228003919,0.,0.120808587,0.246632398,0.,0.108361435,               229P    345
0.265260878,0.,0.097800129,0.28501969,0.,0.087238824,                229P    346
0.304778503,0.,0.078665077,0.32547736,0.,0.070091329,                229P    347
0.346176218,0.,0.063587709,0.367615779,0.,0.05708409,                229P    348
0.38905534,0.,0.052713231,0.41102913,0.,0.048342372,0.43300292,      229P    349
0.,0.046146369,0.455299319,0.,0.043950365,0.477595718,0.,            229P    350
0.043950365,0.5,0.,0.,1.,0.,0.,1.;                                   229P    351
124,6.12323399573677E-017,-1.,0.,3.75,6.12323399573677E-017,         231P    352
3.74939945665464E-033,1.,3.75,-1.,-6.12323399573677E-017,            231P    353
6.12323399573677E-017,2.38494405308637E-016;                         231P    354
100,0.,0.,3.75,47.99831197,3.75,-47.99831197,3.75;                   233P    355
126,64,2,1,0,1,0,0.,0.,0.,0.03125,0.03125,0.0625,0.0625,             235P    356
0.09375,0.09375,0.125,0.125,0.15625,0.15625,0.1875,0.1875,           235P    357
0.21875,0.21875,0.25,0.25,0.28125,0.28125,0.3125,0.3125,             235P    358
0.34375,0.34375,0.375,0.375,0.40625,0.40625,0.4375,0.4375,           235P    359
0.46875,0.46875,0.5,0.5,0.53125,0.53125,0.5625,0.5625,0.59375,       235P    360
0.59375,0.625,0.625,0.65625,0.65625,0.6875,0.6875,0.71875,           235P    361
0.71875,0.75,0.75,0.78125,0.78125,0.8125,0.8125,0.84375,             235P    362
0.84375,0.875,0.875,0.90625,0.90625,0.9375,0.9375,0.96875,           235P    363
0.96875,1.,1.,1.,1.,1.,1.,1.,1.,1.,1.,1.,1.,1.,1.,1.,1.,1.,1.,       235P    364
1.,1.,1.,1.,1.,1.,1.,1.,1.,1.,1.,1.,1.,1.,1.,1.,1.,1.,1.,1.,1.,      235P    365
1.,1.,1.,1.,1.,1.,1.,1.,1.,1.,1.,1.,1.,1.,1.,1.,1.,1.,1.,1.,1.,      235P    366
1.,1.,1.,1.,1.,1.,1.,1.,0.043950365,0.5,0.,0.043950365,              235P    367
0.522404282,0.,0.046146369,0.544700681,0.,0.048342372,               235P    368
0.56699708,0.,0.052713231,0.58897087,0.,0.05708409,0.61094466,       235P    369
0.,0.063587709,0.632384221,0.,0.070091329,0.653823782,0.,            235P    370
0.078665077,0.67452264,0.,0.087238824,0.695221497,0.,                235P    371
0.097800129,0.71498031,0.,0.108361435,0.734739122,0.,                235P    372
0.120808587,0.753367602,0.,0.133255739,0.771996081,0.,               235P    373
0.147468865,0.789314826,0.,0.161681991,0.80663357,0.,                235P    374
0.177524211,0.822475789,0.,0.19336643,0.838318009,0.,                235P    375
0.210685174,0.852531135,0.,0.228003919,0.866744261,0.,               235P    376
0.246632398,0.879191413,0.,0.265260878,0.891638565,0.,               235P    377
0.28501969,0.902199871,0.,0.304778503,0.912761176,0.,                235P    378
0.32547736,0.921334923,0.,0.346176218,0.929908671,0.,                235P    379
0.367615779,0.936412291,0.,0.38905534,0.94291591,0.,0.41102913,      235P    380
0.947286769,0.,0.43300292,0.951657628,0.,0.455299319,                235P    381
0.953853631,0.,0.477595718,0.956049635,0.,0.5,0.956049635,0.,        235P    382
0.522404282,0.956049635,0.,0.544700681,0.953853631,0.,               235P    383
0.56699708,0.951657628,0.,0.58897087,0.947286769,0.,0.61094466,      235P    384
0.94291591,0.,0.632384221,0.936412291,0.,0.653823782,                235P    385
0.929908671,0.,0.67452264,0.921334923,0.,0.695221497,                235P    386
0.912761176,0.,0.71498031,0.902199871,0.,0.734739122,                235P    387
0.891638565,0.,0.753367602,0.879191413,0.,0.771996081,               235P    388
0.866744261,0.,0.789314826,0.852531135,0.,0.80663357,                235P    389
0.838318009,0.,0.822475789,0.822475789,0.,0.838318009,               235P    390
0.80663357,0.,0.852531135,0.789314826,0.,0.866744261,                235P    391
0.771996081,0.,0.879191413,0.753367602,0.,0.891638565,               235P    392
0.734739122,0.,0.902199871,0.71498031,0.,0.912761176,                235P    393
0.695221497,0.,0.921334923,0.67452264,0.,0.929908671,                235P    394
0.653823782,0.,0.936412291,0.632384221,0.,0.94291591,                235P    395
0.61094466,0.,0.947286769,0.58897087,0.,0.951657628,0.56699708,      235P    396
0.,0.953853631,0.544700681,0.,0.956049635,0.522404282,0.,            235P    397
0.956049635,0.5,0.,0.,1.,0.,0.,1.;                                   235P    398
124,1.40271576953299E-014,1.,0.,-3.75,-6.12323399573677E-017,        237P    399
8.58915688636046E-031,1.,3.75,1.,-1.40271576953299E-014,             237P    400
6.12323399573677E-017,5.26107144879556E-014;                         237P    401
100,0.,0.,3.75,47.99831197,3.75,-47.99831197,3.75;                   239P    402
102,2,229,235;                                                       241P    403
102,2,233,239;                                                       243P    404
142,1,209,241,243,1;                                                 245P    405
144,209,1,1,227,245;                                                 247P    406
128,3,3,3,3,0,0,0,0,0,0.,0.,0.,0.,1.,1.,1.,1.,0.,0.,0.,0.,1.,        249P    407
1.,1.,1.,1.,0.76866820862015,0.76866820862015,1.,                    249P    408
0.333333333333333,0.256222736206717,0.256222736206717,               249P    409
0.333333333333333,0.333333333333333,0.256222736206717,               249P    410
0.256222736206717,0.333333333333333,1.,0.76866820862015,             249P    411
0.76866820862015,1.,0.,3.753806826,48.074385034,0.,3.703837816,      249P    412
47.576361676,0.,4.048388872,47.213306946,0.,4.548343155,             249P    413
47.237179147,96.148770068,3.753806826,48.074385034,                  249P    414
95.152723352,3.703837816,47.576361676,94.426613891,4.048388872,      249P    415
47.213306946,94.474358293,4.548343155,47.237179147,                  249P    416
96.148770068,3.753806826,-48.074385034,95.152723352,                 249P    417
3.703837816,-47.576361676,94.426613891,4.048388872,                  249P    418
-47.213306946,94.474358293,4.548343155,-47.237179147,0.,             249P    419
3.753806826,-48.074385034,0.,3.703837816,-47.576361676,0.,           249P    420
4.048388872,-47.213306946,0.,4.548343155,-47.237179147,0.,1.,        249P    421
0.,1.;                                                               249P    422
126,1,1,1,0,1,0,0.,0.,1.,1.,1.,1.,0.064593261,1.,0.,                 251P    423
0.064593261,0.,0.,0.,1.,0.,0.,1.;                                    251P    424
124,1.40271576953299E-014,1.,0.,-3.75,7.04419501764363E-015,         253P    425
-9.88100343491444E-029,-1.,3.75,-1.,1.40271576953299E-014,           253P    426
-7.04419501764363E-015,-5.25929682270186E-014;                       253P    427
100,0.,0.,3.75,47.99831197,3.75,-47.99831197,3.75;                   255P    428
126,1,1,1,0,1,0,0.,0.,1.,1.,1.,1.,0.064593261,0.,0.,                 257P    429
0.935406739,0.,0.,0.,1.,0.,0.,1.;                                    257P    430
124,8.58915688636046E-031,6.12323399573677E-017,1.,                  259P    431
-47.9983119703183,-1.,1.40271576953299E-014,0.,                      259P    432
4.51199999999994,-1.40271576953299E-014,-1.,                         259P    433
6.12323399573677E-017,52.5103119703183;                              259P    434
100,47.99831197,0.,4.512,0.762,4.512,0.0398249,5.272958591;          261P    435
126,1,1,1,0,1,0,0.,0.,1.,1.,1.,1.,0.935406739,0.,0.,                 263P    436
0.935406739,1.,0.,0.,1.,0.,0.,1.;                                    263P    437
124,1.40271576953299E-014,1.,0.,-4.47217509986684,                   265P    438
-6.12323399573677E-017,8.58915688636046E-031,1.,                     265P    439
4.47217509986684,1.,-1.40271576953299E-014,                          265P    440
6.12323399573677E-017,6.27424872851303E-014;                         265P    441
100,0.,0.,4.4721751,47.237353379,4.4721751,-47.237353379,            267P    442
4.4721751;                                                           267P    443
126,1,1,1,0,1,0,0.,0.,1.,1.,1.,1.,0.935406739,1.,0.,                 269P    444
0.064593261,1.,0.,0.,1.,0.,0.,1.;                                    269P    445
124,-6.11486550421587E-017,3.20022549044996E-018,1.,                 271P    446
47.9983119703183,-0.0522636484687354,-0.99863332161947,              271P    447
-2.89772022044683E-034,9.01783354714707,0.99863332161947,            271P    448
-0.0522636484687354,6.12323399573677E-017,-47.7624983884273;         271P    449
100,-47.99831197,0.,4.512,0.762,4.512,0.0398249,5.272958591;         273P    450
102,4,251,257,263,269;                                               275P    451
102,4,255,261,267,273;                                               277P    452
142,1,249,275,277,1;                                                 279P    453
144,249,1,0,279;                                                     281P    454
110,0.,2.,0.,0.,49.302,0.;                                           283P    455
124,8.58915688636046E-031,6.12323399573677E-017,1.,                  285P    456
-6.82545712904601E-017,-1.,1.40271576953299E-014,0.,                 285P    457
1.99999999999997,-1.40271576953299E-014,-1.,                         285P    458
6.12323399573677E-017,2.;                                            285P    459
100,0.,0.,2.,47.302,2.,-47.302,2.;                                   287P    460
120,283,287,0.,6.28318530717959;                                     289P    461
126,1,1,1,0,1,0,0.,0.,1.,1.,1.,1.,3.141592644,3.141592654,0.,        291P    462
1.623083787,3.141592654,0.,0.,1.,0.,0.,1.;                           291P    463
124,4.03917147869933E-033,-6.12323399573677E-017,1.,                 293P    464
1.76674788539011E-016,1.,6.12323399573677E-017,                      293P    465
-2.89772022044683E-034,2.,-6.12323399573677E-017,1.,                 293P    466
6.12323399573677E-017,-2.;                                           293P    467
100,0.,0.,2.,47.302,2.,2.4721751,49.237353379;                       295P    468
126,1,1,1,0,1,0,0.,0.,1.,1.,1.,1.,1.623083787,3.141592654,0.,        297P    469
1.623083787,6.283185307,0.,0.,1.,0.,0.,1.;                           297P    470
124,1.40271576953299E-014,1.,0.,-4.47217509986684,                   299P    471
-6.12323399573677E-017,8.58915688636046E-031,1.,                     299P    472
4.47217509986684,1.,-1.40271576953299E-014,                          299P    473
6.12323399573677E-017,6.27424872851303E-014;                         299P    474
100,0.,0.,4.4721751,47.237353379,4.4721751,-47.237353379,            301P    475
4.4721751;                                                           301P    476
126,1,1,1,0,1,0,0.,0.,1.,1.,1.,1.,1.623083787,6.283185307,0.,        303P    477
3.141592644,6.283185307,0.,0.,1.,0.,0.,1.;                           303P    478
124,6.11486550421588E-017,-3.20022549044821E-018,1.,                 305P    479
6.06105596051716E-017,0.0522636484687067,0.998633321619472,0.,       305P    480
0.00273335676105625,-0.998633321619472,0.0522636484687067,           305P    481
6.12323399573677E-017,-0.104527296937413;                            305P    482
100,0.,0.,2.,47.302,2.,2.4721751,49.237353379;                       307P    483
102,3,291,297,303;                                                   309P    484
102,3,295,301,307;                                                   311P    485
142,1,289,309,311,1;                                                 313P    486
144,289,1,0,313;                                                     315P    487
110,0.,2.,0.,0.,45.552,0.;                                           317P    488
124,8.58915688636046E-031,6.12323399573677E-017,-1.,                 319P    489
-1.76674788539011E-016,-1.,1.40271576953299E-014,0.,                 319P    490
1.99999999999997,1.40271576953299E-014,1.,                           319P    491
6.12323399573677E-017,-2.;                                           319P    492
100,0.,0.,2.,43.552,2.,-43.552,2.;                                   321P    493
120,317,321,0.,6.28318530717959;                                     323P    494
126,1,1,1,0,1,0,0.,0.,1.,1.,1.,1.,3.141592644,0.,0.,                 325P    495
1.570796317,0.,0.,0.,1.,0.,0.,1.;                                    325P    496
124,-9.84691127781427E-033,-6.12323399573677E-017,1.,                327P    497
1.76674788539011E-016,1.,-1.60812264967664E-016,0.,2.,               327P    498
1.60812264967664E-016,1.,6.12323399573677E-017,-2.;                  327P    499
100,0.,0.,2.,43.552,2.,0.,45.552;                                    329P    500
126,1,1,1,0,1,0,0.,0.,1.,1.,1.,1.,1.570796317,0.,0.,                 331P    501
1.570796317,3.141592654,0.,0.,1.,0.,0.,1.;                           331P    502
124,1.40271576953299E-014,1.,0.,-2.,-6.12323399573677E-017,          333P    503
8.58915688636046E-031,1.,2.,1.,-1.40271576953299E-014,               333P    504
6.12323399573677E-017,2.80590477269097E-014;                         333P    505
100,0.,0.,2.,43.552,2.,-43.552,2.;                                   335P    506
126,1,1,1,0,1,0,0.,0.,1.,1.,1.,1.,1.570796317,3.141592654,0.,        337P    507
3.141592644,3.141592654,0.,0.,1.,0.,0.,1.;                           337P    508
124,6.12323399573677E-017,2.89772022044683E-034,1.,0.,               339P    509
2.89772022044683E-034,1.,-2.89772022044683E-034,0.,-1.,              339P    510
2.89772022044683E-034,6.12323399573677E-017,0.;                      339P    511
100,0.,0.,2.,43.552,2.,0.,45.552;                                    341P    512
126,1,1,1,0,1,0,0.,0.,1.,1.,1.,1.,3.141592644,3.141592654,0.,        343P    513
3.141592644,0.,0.,0.,1.,0.,0.,1.;                                    343P    514
102,4,325,331,337,343;                                               345P    515
102,3,329,335,341;                                                   347P    516
142,1,323,345,347,1;                                                 349P    517
144,323,1,0,349;                                                     351P    518
128,3,3,3,3,0,0,0,0,0,0.,0.,0.,0.,1.,1.,1.,1.,0.,0.,0.,0.,1.,        353P    519
1.,1.,1.,1.,0.75532087111797,0.75532087111797,1.,                    353P    520
0.333333333333333,0.25177362370599,0.25177362370599,                 353P    521
0.333333333333333,0.333333333333333,0.25177362370599,                353P    522
0.25177362370599,0.333333333333333,1.,0.75532087111797,              353P    523
0.75532087111797,1.,0.,0.009991669,-45.751666833,0.,                 353P    524
-0.126440845,-44.39189247,0.,0.83989247,-43.425559155,0.,            353P    525
2.199666833,-43.561991669,-91.503333667,0.009991669,                 353P    526
-45.751666833,-88.783784939,-0.126440845,-44.39189247,               353P    527
-86.851118309,0.83989247,-43.425559155,-87.123983339,                353P    528
2.199666833,-43.561991669,-91.503333667,0.009991669,                 353P    529
45.751666833,-88.783784939,-0.126440845,44.39189247,                 353P    530
-86.851118309,0.83989247,43.425559155,-87.123983339,                 353P    531
2.199666833,43.561991669,0.,0.009991669,45.751666833,0.,             353P    532
-0.126440845,44.39189247,0.,0.83989247,43.425559155,0.,              353P    533
2.199666833,43.561991669,0.,1.,0.,1.;                                353P    534
126,1,1,1,0,1,0,0.,0.,1.,1.,1.,1.,0.063141457,0.,0.,                 355P    535
0.936858543,0.,0.,0.,1.,0.,0.,1.;                                    355P    536
124,-7.37843161258456E-029,-7.04419501764363E-015,-1.,-45.552,       357P    537
-1.,1.04744440165294E-014,2.89772022044683E-034,                     357P    538
1.99999999999999,1.04744440165294E-014,1.,                           357P    539
-7.04419501764363E-015,-47.5520000000003;                            357P    540
100,-45.552,0.,2.,2.,2.,0.,4.;                                       359P    541
126,1,1,1,0,1,0,0.,0.,1.,1.,1.,1.,0.936858543,0.,0.,                 361P    542
0.936858543,1.,0.,0.,1.,0.,0.,1.;                                    361P    543
124,6.12323399573677E-017,-1.,0.,2.,6.12323399573677E-017,           363P    544
3.74939945665464E-033,1.,2.,-1.,-6.12323399573677E-017,              363P    545
6.12323399573677E-017,1.27197016164607E-016;                         363P    546
100,0.,0.,2.,43.552,2.,-43.552,2.;                                   365P    547
126,1,1,1,0,1,0,0.,0.,1.,1.,1.,1.,0.936858543,1.,0.,                 367P    548
0.063141457,1.,0.,0.,1.,0.,0.,1.;                                    367P    549
124,-6.12323399573677E-017,-7.49879891330929E-033,-1.,45.552,        369P    550
1.22464679914735E-016,-1.,0.,4.,-1.,-1.22464679914735E-016,          369P    551
6.12323399573677E-017,45.552;                                        369P    552
100,45.552,0.,2.,2.,2.,0.,4.;                                        371P    553
126,1,1,1,0,1,0,0.,0.,1.,1.,1.,1.,0.063141457,1.,0.,                 373P    554
0.063141457,0.,0.,0.,1.,0.,0.,1.;                                    373P    555
124,6.12323399573677E-017,-1.,0.,0.,-7.04419501764363E-015,          375P    556
-4.3133254404635E-031,-1.,0.,1.,6.12323399573677E-017,               375P    557
-7.04419501764363E-015,0.;                                           375P    558
100,0.,0.,0.,45.552,0.,-45.552,0.;                                   377P    559
102,4,355,361,367,373;                                               379P    560
102,4,359,365,371,377;                                               381P    561
142,1,353,379,381,1;                                                 383P    562
144,353,1,0,383;                                                     385P    563
128,1,1,1,1,0,0,1,0,0,0.,0.,1.,1.,0.,0.,1.,1.,1.,1.,1.,1.,           387P    564
-52.956019478,0.,-52.956019478,-52.956019478,0.,52.956019478,        387P    565
52.956019478,0.,-52.956019478,52.956019478,0.,52.956019478,0.,       387P    566
1.,0.,1.;                                                            387P    567
126,64,2,1,0,1,0,0.,0.,0.,0.03125,0.03125,0.0625,0.0625,             389P    568
0.09375,0.09375,0.125,0.125,0.15625,0.15625,0.1875,0.1875,           389P    569
0.21875,0.21875,0.25,0.25,0.28125,0.28125,0.3125,0.3125,             389P    570
0.34375,0.34375,0.375,0.375,0.40625,0.40625,0.4375,0.4375,           389P    571
0.46875,0.46875,0.5,0.5,0.53125,0.53125,0.5625,0.5625,0.59375,       389P    572
0.59375,0.625,0.625,0.65625,0.65625,0.6875,0.6875,0.71875,           389P    573
0.71875,0.75,0.75,0.78125,0.78125,0.8125,0.8125,0.84375,             389P    574
0.84375,0.875,0.875,0.90625,0.90625,0.9375,0.9375,0.96875,           389P    575
0.96875,1.,1.,1.,1.,1.,1.,1.,1.,1.,1.,1.,1.,1.,1.,1.,1.,1.,1.,       389P    576
1.,1.,1.,1.,1.,1.,1.,1.,1.,1.,1.,1.,1.,1.,1.,1.,1.,1.,1.,1.,1.,      389P    577
1.,1.,1.,1.,1.,1.,1.,1.,1.,1.,1.,1.,1.,1.,1.,1.,1.,1.,1.,1.,1.,      389P    578
1.,1.,1.,1.,1.,1.,1.,1.,0.994071146,0.5,0.,0.994071146,              389P    579
0.524272159,0.,0.991692059,0.548427441,0.,0.989312971,               389P    580
0.572582723,0.,0.984577708,0.596388499,0.,0.979842444,               389P    581
0.620194275,0.,0.972796609,0.643421283,0.,0.965750773,               389P    582
0.666648291,0.,0.95646222,0.689072842,0.,0.947173667,                389P    583
0.711497393,0.,0.93573185,0.732903526,0.,0.924290033,                389P    584
0.754309659,0.,0.910805144,0.774491222,0.,0.897320255,               389P    585
0.794672784,0.,0.881922161,0.813435417,0.,0.866524066,               389P    586
0.83219805,0.,0.849361058,0.849361058,0.,0.83219805,                 389P    587
0.866524066,0.,0.813435417,0.881922161,0.,0.794672784,               389P    588
0.897320255,0.,0.774491222,0.910805144,0.,0.754309659,               389P    589
0.924290033,0.,0.732903526,0.93573185,0.,0.711497393,                389P    590
0.947173667,0.,0.689072842,0.95646222,0.,0.666648291,                389P    591
0.965750773,0.,0.643421283,0.972796609,0.,0.620194275,               389P    592
0.979842444,0.,0.596388499,0.984577708,0.,0.572582723,               389P    593
0.989312971,0.,0.548427441,0.991692059,0.,0.524272159,               389P    594
0.994071146,0.,0.5,0.994071146,0.,0.475727841,0.994071146,0.,        389P    595
0.451572559,0.991692059,0.,0.427417277,0.989312971,0.,               389P    596
0.403611501,0.984577708,0.,0.379805725,0.979842444,0.,               389P    597
0.356578717,0.972796609,0.,0.333351709,0.965750773,0.,               389P    598
0.310927158,0.95646222,0.,0.288502607,0.947173667,0.,                389P    599
0.267096474,0.93573185,0.,0.245690341,0.924290033,0.,                389P    600
0.225508778,0.910805144,0.,0.205327216,0.897320255,0.,               389P    601
0.186564583,0.881922161,0.,0.16780195,0.866524066,0.,                389P    602
0.150638942,0.849361058,0.,0.133475934,0.83219805,0.,                389P    603
0.118077839,0.813435417,0.,0.102679745,0.794672784,0.,               389P    604
0.089194856,0.774491222,0.,0.075709967,0.754309659,0.,               389P    605
0.06426815,0.732903526,0.,0.052826333,0.711497393,0.,                389P    606
0.04353778,0.689072842,0.,0.034249227,0.666648291,0.,                389P    607
0.027203391,0.643421283,0.,0.020157556,0.620194275,0.,               389P    608
0.015422292,0.596388499,0.,0.010687029,0.572582723,0.,               389P    609
0.008307941,0.548427441,0.,0.005928854,0.524272159,0.,               389P    610
0.005928854,0.5,0.,0.,1.,0.,0.,-1.;                                  389P    611
124,1.40271576953299E-014,1.,0.,0.,-6.12323399573677E-017,           391P    612
8.58915688636046E-031,1.,0.,1.,-1.40271576953299E-014,               391P    613
6.12323399573677E-017,0.;                                            391P    614
100,0.,0.,0.,52.328082488,0.,-52.328082488,0.;                       393P    615
126,64,2,1,0,1,0,0.,0.,0.,0.03125,0.03125,0.0625,0.0625,             395P    616
0.09375,0.09375,0.125,0.125,0.15625,0.15625,0.1875,0.1875,           395P    617
0.21875,0.21875,0.25,0.25,0.28125,0.28125,0.3125,0.3125,             395P    618
0.34375,0.34375,0.375,0.375,0.40625,0.40625,0.4375,0.4375,           395P    619
0.46875,0.46875,0.5,0.5,0.53125,0.53125,0.5625,0.5625,0.59375,       395P    620
0.59375,0.625,0.625,0.65625,0.65625,0.6875,0.6875,0.71875,           395P    621
0.71875,0.75,0.75,0.78125,0.78125,0.8125,0.8125,0.84375,             395P    622
0.84375,0.875,0.875,0.90625,0.90625,0.9375,0.9375,0.96875,           395P    623
0.96875,1.,1.,1.,1.,1.,1.,1.,1.,1.,1.,1.,1.,1.,1.,1.,1.,1.,1.,       395P    624
1.,1.,1.,1.,1.,1.,1.,1.,1.,1.,1.,1.,1.,1.,1.,1.,1.,1.,1.,1.,1.,      395P    625
1.,1.,1.,1.,1.,1.,1.,1.,1.,1.,1.,1.,1.,1.,1.,1.,1.,1.,1.,1.,1.,      395P    626
1.,1.,1.,1.,1.,1.,1.,1.,0.005928854,0.5,0.,0.005928854,              395P    627
0.475727841,0.,0.008307941,0.451572559,0.,0.010687029,               395P    628
0.427417277,0.,0.015422292,0.403611501,0.,0.020157556,               395P    629
0.379805725,0.,0.027203391,0.356578717,0.,0.034249227,               395P    630
0.333351709,0.,0.04353778,0.310927158,0.,0.052826333,                395P    631
0.288502607,0.,0.06426815,0.267096474,0.,0.075709967,                395P    632
0.245690341,0.,0.089194856,0.225508778,0.,0.102679745,               395P    633
0.205327216,0.,0.118077839,0.186564583,0.,0.133475934,               395P    634
0.16780195,0.,0.150638942,0.150638942,0.,0.16780195,                 395P    635
0.133475934,0.,0.186564583,0.118077839,0.,0.205327216,               395P    636
0.102679745,0.,0.225508778,0.089194856,0.,0.245690341,               395P    637
0.075709967,0.,0.267096474,0.06426815,0.,0.288502607,                395P    638
0.052826333,0.,0.310927158,0.04353778,0.,0.333351709,                395P    639
0.034249227,0.,0.356578717,0.027203391,0.,0.379805725,               395P    640
0.020157556,0.,0.403611501,0.015422292,0.,0.427417277,               395P    641
0.010687029,0.,0.451572559,0.008307941,0.,0.475727841,               395P    642
0.005928854,0.,0.5,0.005928854,0.,0.524272159,0.005928854,0.,        395P    643
0.548427441,0.008307941,0.,0.572582723,0.010687029,0.,               395P    644
0.596388499,0.015422292,0.,0.620194275,0.020157556,0.,               395P    645
0.643421283,0.027203391,0.,0.666648291,0.034249227,0.,               395P    646
0.689072842,0.04353778,0.,0.711497393,0.052826333,0.,                395P    647
0.732903526,0.06426815,0.,0.754309659,0.075709967,0.,                395P    648
0.774491222,0.089194856,0.,0.794672784,0.102679745,0.,               395P    649
0.813435417,0.118077839,0.,0.83219805,0.133475934,0.,                395P    650
0.849361058,0.150638942,0.,0.866524066,0.16780195,0.,                395P    651
0.881922161,0.186564583,0.,0.897320255,0.205327216,0.,               395P    652
0.910805144,0.225508778,0.,0.924290033,0.245690341,0.,               395P    653
0.93573185,0.267096474,0.,0.947173667,0.288502607,0.,                395P    654
0.95646222,0.310927158,0.,0.965750773,0.333351709,0.,                395P    655
0.972796609,0.356578717,0.,0.979842444,0.379805725,0.,               395P    656
0.984577708,0.403611501,0.,0.989312971,0.427417277,0.,               395P    657
0.991692059,0.451572559,0.,0.994071146,0.475727841,0.,               395P    658
0.994071146,0.5,0.,0.,1.,0.,0.,-1.;                                  395P    659
124,6.12323399573677E-017,-1.,0.,0.,6.12323399573677E-017,           397P    660
3.74939945665464E-033,1.,0.,-1.,-6.12323399573677E-017,              397P    661
6.12323399573677E-017,0.;                                            397P    662
100,0.,0.,0.,52.328082488,0.,-52.328082488,0.;                       399P    663
102,2,389,395;                                                       401P    664
102,2,393,399;                                                       403P    665
142,1,387,401,403,1;                                                 405P    666
126,64,2,1,0,1,0,0.,0.,0.,0.03125,0.03125,0.0625,0.0625,             407P    667
0.09375,0.09375,0.125,0.125,0.15625,0.15625,0.1875,0.1875,           407P    668
0.21875,0.21875,0.25,0.25,0.28125,0.28125,0.3125,0.3125,             407P    669
0.34375,0.34375,0.375,0.375,0.40625,0.40625,0.4375,0.4375,           407P    670
0.46875,0.46875,0.5,0.5,0.53125,0.53125,0.5625,0.5625,0.59375,       407P    671
0.59375,0.625,0.625,0.65625,0.65625,0.6875,0.6875,0.71875,           407P    672
0.71875,0.75,0.75,0.78125,0.78125,0.8125,0.8125,0.84375,             407P    673
0.84375,0.875,0.875,0.90625,0.90625,0.9375,0.9375,0.96875,           407P    674
0.96875,1.,1.,1.,1.,1.,1.,1.,1.,1.,1.,1.,1.,1.,1.,1.,1.,1.,1.,       407P    675
1.,1.,1.,1.,1.,1.,1.,1.,1.,1.,1.,1.,1.,1.,1.,1.,1.,1.,1.,1.,1.,      407P    676
1.,1.,1.,1.,1.,1.,1.,1.,1.,1.,1.,1.,1.,1.,1.,1.,1.,1.,1.,1.,1.,      407P    677
1.,1.,1.,1.,1.,1.,1.,1.,0.930092749,0.5,0.,0.930092749,              407P    678
0.478870898,0.,0.928021735,0.457843539,0.,0.925950721,               407P    679
0.436816179,0.,0.921828638,0.416093067,0.,0.917706554,               407P    680
0.395369955,0.,0.9115731,0.375150665,0.,0.905439645,                 407P    681
0.354931375,0.,0.897353888,0.335410631,0.,0.889268131,               407P    682
0.315889886,0.,0.879307941,0.297255682,0.,0.869347751,               407P    683
0.278621477,0.,0.857609051,0.261053271,0.,0.845870351,               407P    684
0.243485065,0.,0.832466191,0.227152048,0.,0.819062031,               407P    685
0.210819032,0.,0.804121499,0.195878501,0.,0.789180968,               407P    686
0.180937969,0.,0.772847952,0.167533809,0.,0.756514935,               407P    687
0.154129649,0.,0.738946729,0.142390949,0.,0.721378523,               407P    688
0.130652249,0.,0.702744318,0.120692059,0.,0.684110114,               407P    689
0.110731869,0.,0.664589369,0.102646112,0.,0.645068625,               407P    690
0.094560355,0.,0.624849335,0.0884269,0.,0.604630045,                 407P    691
0.082293446,0.,0.583906933,0.078171362,0.,0.563183821,               407P    692
0.074049279,0.,0.542156461,0.071978265,0.,0.521129102,               407P    693
0.069907251,0.,0.5,0.069907251,0.,0.478870898,0.069907251,0.,        407P    694
0.457843539,0.071978265,0.,0.436816179,0.074049279,0.,               407P    695
0.416093067,0.078171362,0.,0.395369955,0.082293446,0.,               407P    696
0.375150665,0.0884269,0.,0.354931375,0.094560355,0.,                 407P    697
0.335410631,0.102646112,0.,0.315889886,0.110731869,0.,               407P    698
0.297255682,0.120692059,0.,0.278621477,0.130652249,0.,               407P    699
0.261053271,0.142390949,0.,0.243485065,0.154129649,0.,               407P    700
0.227152048,0.167533809,0.,0.210819032,0.180937969,0.,               407P    701
0.195878501,0.195878501,0.,0.180937969,0.210819032,0.,               407P    702
0.167533809,0.227152048,0.,0.154129649,0.243485065,0.,               407P    703
0.142390949,0.261053271,0.,0.130652249,0.278621477,0.,               407P    704
0.120692059,0.297255682,0.,0.110731869,0.315889886,0.,               407P    705
0.102646112,0.335410631,0.,0.094560355,0.354931375,0.,               407P    706
0.0884269,0.375150665,0.,0.082293446,0.395369955,0.,                 407P    707
0.078171362,0.416093067,0.,0.074049279,0.436816179,0.,               407P    708
0.071978265,0.457843539,0.,0.069907251,0.478870898,0.,               407P    709
0.069907251,0.5,0.,0.,1.,0.,0.,1.;                                   407P    710
124,6.12323399573677E-017,-1.,0.,0.,-7.04419501764363E-015,          409P    711
-4.3133254404635E-031,-1.,0.,1.,6.12323399573677E-017,               409P    712
-7.04419501764363E-015,0.;                                           409P    713
100,0.,0.,0.,45.552,0.,-45.552,0.;                                   411P    714
126,64,2,1,0,1,0,0.,0.,0.,0.03125,0.03125,0.0625,0.0625,             413P    715
0.09375,0.09375,0.125,0.125,0.15625,0.15625,0.1875,0.1875,           413P    716
0.21875,0.21875,0.25,0.25,0.28125,0.28125,0.3125,0.3125,             413P    717
0.34375,0.34375,0.375,0.375,0.40625,0.40625,0.4375,0.4375,           413P    718
0.46875,0.46875,0.5,0.5,0.53125,0.53125,0.5625,0.5625,0.59375,       413P    719
0.59375,0.625,0.625,0.65625,0.65625,0.6875,0.6875,0.71875,           413P    720
0.71875,0.75,0.75,0.78125,0.78125,0.8125,0.8125,0.84375,             413P    721
0.84375,0.875,0.875,0.90625,0.90625,0.9375,0.9375,0.96875,           413P    722
0.96875,1.,1.,1.,1.,1.,1.,1.,1.,1.,1.,1.,1.,1.,1.,1.,1.,1.,1.,       413P    723
1.,1.,1.,1.,1.,1.,1.,1.,1.,1.,1.,1.,1.,1.,1.,1.,1.,1.,1.,1.,1.,      413P    724
1.,1.,1.,1.,1.,1.,1.,1.,1.,1.,1.,1.,1.,1.,1.,1.,1.,1.,1.,1.,1.,      413P    725
1.,1.,1.,1.,1.,1.,1.,1.,0.069907251,0.5,0.,0.069907251,              413P    726
0.521129102,0.,0.071978265,0.542156461,0.,0.074049279,               413P    727
0.563183821,0.,0.078171362,0.583906933,0.,0.082293446,               413P    728
0.604630045,0.,0.0884269,0.624849335,0.,0.094560355,                 413P    729
0.645068625,0.,0.102646112,0.664589369,0.,0.110731869,               413P    730
0.684110114,0.,0.120692059,0.702744318,0.,0.130652249,               413P    731
0.721378523,0.,0.142390949,0.738946729,0.,0.154129649,               413P    732
0.756514935,0.,0.167533809,0.772847952,0.,0.180937969,               413P    733
0.789180968,0.,0.195878501,0.804121499,0.,0.210819032,               413P    734
0.819062031,0.,0.227152048,0.832466191,0.,0.243485065,               413P    735
0.845870351,0.,0.261053271,0.857609051,0.,0.278621477,               413P    736
0.869347751,0.,0.297255682,0.879307941,0.,0.315889886,               413P    737
0.889268131,0.,0.335410631,0.897353888,0.,0.354931375,               413P    738
0.905439645,0.,0.375150665,0.9115731,0.,0.395369955,                 413P    739
0.917706554,0.,0.416093067,0.921828638,0.,0.436816179,               413P    740
0.925950721,0.,0.457843539,0.928021735,0.,0.478870898,               413P    741
0.930092749,0.,0.5,0.930092749,0.,0.521129102,0.930092749,0.,        413P    742
0.542156461,0.928021735,0.,0.563183821,0.925950721,0.,               413P    743
0.583906933,0.921828638,0.,0.604630045,0.917706554,0.,               413P    744
0.624849335,0.9115731,0.,0.645068625,0.905439645,0.,                 413P    745
0.664589369,0.897353888,0.,0.684110114,0.889268131,0.,               413P    746
0.702744318,0.879307941,0.,0.721378523,0.869347751,0.,               413P    747
0.738946729,0.857609051,0.,0.756514935,0.845870351,0.,               413P    748
0.772847952,0.832466191,0.,0.789180968,0.819062031,0.,               413P    749
0.804121499,0.804121499,0.,0.819062031,0.789180968,0.,               413P    750
0.832466191,0.772847952,0.,0.845870351,0.756514935,0.,               413P    751
0.857609051,0.738946729,0.,0.869347751,0.721378523,0.,               413P    752
0.879307941,0.702744318,0.,0.889268131,0.684110114,0.,               413P    753
0.897353888,0.664589369,0.,0.905439645,0.645068625,0.,               413P    754
0.9115731,0.624849335,0.,0.917706554,0.604630045,0.,                 413P    755
0.921828638,0.583906933,0.,0.925950721,0.563183821,0.,               413P    756
0.928021735,0.542156461,0.,0.930092749,0.521129102,0.,               413P    757
0.930092749,0.5,0.,0.,1.,0.,0.,1.;                                   413P    758
124,1.40271576953299E-014,1.,0.,0.,7.04419501764363E-015,            415P    759
-9.88100343491444E-029,-1.,0.,-1.,1.40271576953299E-014,             415P    760
-7.04419501764363E-015,0.;                                           415P    761
100,0.,0.,0.,45.552,0.,-45.552,0.;                                   417P    762
102,2,407,413;                                                       419P    763
102,2,411,417;                                                       421P    764
142,1,387,419,421,1;                                                 423P    765
144,387,1,1,405,423;                                                 425P    766
S      1G      5D    426P    766                                        T      1
